<svg width="24" height="24" viewBox="0 0 24 24" fill="none" xmlns="http://www.w3.org/2000/svg">
<path d="M12 7C11.8022 7 11.6089 7.05865 11.4444 7.16853C11.28 7.27841 11.1518 7.43459 11.0761 7.61731C11.0004 7.80004 10.9806 8.00111 11.0192 8.19509C11.0578 8.38907 11.153 8.56725 11.2929 8.7071C11.4327 8.84696 11.6109 8.9422 11.8049 8.98078C11.9989 9.01937 12.2 8.99956 12.3827 8.92388C12.5654 8.84819 12.7216 8.72002 12.8315 8.55557C12.9414 8.39112 13 8.19778 13 8C13 7.73478 12.8946 7.48043 12.7071 7.29289C12.5196 7.10535 12.2652 7 12 7ZM6.304 16.134C6.13272 16.2329 5.9946 16.3803 5.90712 16.5577C5.81965 16.7351 5.78674 16.9345 5.81255 17.1306C5.83837 17.3266 5.92175 17.5107 6.05216 17.6594C6.18257 17.8081 6.35415 17.9148 6.54519 17.966C6.73623 18.0171 6.93817 18.0105 7.12545 17.947C7.31274 17.8834 7.47696 17.7657 7.59736 17.6088C7.71776 17.4519 7.78893 17.2628 7.80186 17.0654C7.81479 16.868 7.7689 16.6713 7.67 16.5C7.53739 16.2703 7.31898 16.1027 7.0628 16.0341C6.80663 15.9655 6.53368 16.0014 6.304 16.134ZM17.696 16.134C17.5247 16.0351 17.328 15.9892 17.1306 16.0021C16.9332 16.0151 16.7441 16.0862 16.5872 16.2066C16.4303 16.327 16.3126 16.4913 16.2491 16.6785C16.1855 16.8658 16.1789 17.0678 16.23 17.2588C16.2812 17.4499 16.3879 17.6214 16.5366 17.7518C16.6853 17.8822 16.8694 17.9656 17.0654 17.9914C17.2615 18.0173 17.4609 17.9844 17.6383 17.8969C17.8157 17.8094 17.9631 17.6713 18.062 17.5C18.1946 17.2703 18.2305 16.9974 18.1619 16.7412C18.0933 16.485 17.9257 16.2666 17.696 16.134ZM20.61 13.343C20.0145 12.7831 19.2888 12.3804 18.4986 12.1714C17.7083 11.9624 16.8785 11.9537 16.084 12.146L15.665 11.383C16.2591 10.7439 16.6751 9.96016 16.8716 9.11003C17.0682 8.25989 17.0383 7.37307 16.785 6.53809C16.5317 5.70311 16.0638 4.94916 15.4281 4.35149C14.7924 3.75382 14.011 3.33333 13.162 3.132C12.4227 2.95867 11.6538 2.95482 10.9127 3.12072C10.1717 3.28662 9.47784 3.61798 8.883 4.09C8.29433 4.55729 7.8191 5.15183 7.49299 5.829C7.16687 6.50617 6.99833 7.24839 7 8C6.99979 9.26205 7.4837 10.4761 8.352 11.392L7.933 12.142C7.08106 11.9408 6.19119 11.9674 5.35275 12.2189C4.51431 12.4705 3.75681 12.9383 3.15634 13.5752C2.55587 14.2122 2.13356 14.9959 1.93182 15.8477C1.73007 16.6995 1.75601 17.5894 2.007 18.428C2.22641 19.155 2.60759 19.823 3.12196 20.3817C3.63633 20.9404 4.27054 21.3754 4.977 21.654C5.61682 21.9072 6.30223 22.0247 6.98984 21.9992C7.67745 21.9737 8.35227 21.8057 8.97157 21.5058C9.59087 21.2059 10.1412 20.7807 10.5876 20.2571C11.034 19.7335 11.3668 19.1229 11.565 18.464L12.432 18.478C12.7438 19.4974 13.3745 20.39 14.2314 21.0243C15.0882 21.6586 16.1259 22.0013 17.192 22.002C18.2697 22.001 19.3185 21.653 20.183 21.0094C21.0475 20.3659 21.6818 19.4611 21.992 18.429C22.2641 17.5371 22.2787 16.5866 22.0342 15.6868C21.7897 14.787 21.296 13.9745 20.61 13.343ZM20.082 17.838C19.9542 18.2747 19.7288 18.6768 19.423 19.0138C19.1172 19.3507 18.7388 19.6139 18.3165 19.7834C17.8942 19.9528 17.4389 20.0242 16.9849 19.9921C16.531 19.96 16.0903 19.8252 15.696 19.598C15.0455 19.2215 14.5623 18.6121 14.344 17.893C14.2224 17.4806 13.9707 17.1185 13.6265 16.8608C13.2823 16.6031 12.864 16.4636 12.434 16.463H11.565C11.1351 16.4637 10.7168 16.6033 10.3727 16.861C10.0285 17.1187 9.77677 17.4806 9.655 17.893C9.53467 18.2866 9.3341 18.651 9.06594 18.9633C8.79779 19.2755 8.46785 19.5288 8.09694 19.7072C7.72603 19.8856 7.32218 19.9853 6.91085 19.9999C6.49952 20.0145 6.08962 19.9437 5.707 19.792C5.00067 19.5179 4.42459 18.9861 4.09498 18.3039C3.76536 17.6217 3.70674 16.8398 3.93094 16.1161C4.15513 15.3924 4.64547 14.7806 5.30302 14.4042C5.96057 14.0278 6.7364 13.9148 7.474 14.088C7.88937 14.1883 8.32611 14.1507 8.71817 13.9807C9.11023 13.8107 9.43628 13.5177 9.647 13.146L10.083 12.392C10.2976 12.0196 10.3862 11.5877 10.3356 11.1609C10.285 10.734 10.0978 10.3349 9.802 10.023C9.52104 9.72198 9.30551 9.36601 9.169 8.97753C9.0325 8.58905 8.97798 8.1765 9.0089 7.7659C9.03981 7.3553 9.15548 6.95556 9.34861 6.5919C9.54174 6.22824 9.80814 5.90855 10.131 5.653C10.7203 5.17889 11.4672 4.94546 12.2216 4.99966C12.976 5.05385 13.6819 5.39165 14.1974 5.94513C14.7129 6.4986 14.9997 7.22671 15.0002 7.98305C15.0006 8.73939 14.7148 9.46786 14.2 10.022C13.9044 10.3341 13.7172 10.7333 13.6662 11.1602C13.6152 11.5871 13.7032 12.019 13.917 12.392L14.352 13.145C14.5635 13.5163 14.8897 13.809 15.2818 13.979C15.6738 14.149 16.1104 14.1873 16.526 14.088C17.0351 13.9673 17.567 13.9824 18.0685 14.1318C18.57 14.2812 19.0234 14.5597 19.3834 14.9394C19.7435 15.3191 19.9975 15.7867 20.1201 16.2953C20.2427 16.804 20.2296 17.336 20.082 17.838Z" fill="#97C171"/>
</svg>
